<svg width="10" height="10" viewBox="0 0 10 10" fill="none" xmlns="http://www.w3.org/2000/svg">
<path d="M0.436558 5.39737C0.60131 5.56212 0.868426 5.56212 1.03318 5.39737L4.69576 1.73478L4.70074 1.72988C4.86585 1.57004 5.12928 1.57167 5.29238 1.73478L8.95497 5.39737L8.95994 5.40226C9.12505 5.56211 9.38849 5.56048 9.55159 5.39737C9.71634 5.23262 9.71634 4.9655 9.55159 4.80075L5.88901 1.13816L5.87409 1.12348C5.37875 0.643949 4.58846 0.648842 4.09914 1.13816L0.436558 4.80075L0.431624 4.80568C0.271822 4.97083 0.273453 5.23427 0.436558 5.39737ZM0.436558 9.13565C0.60131 9.3004 0.868426 9.3004 1.03318 9.13565L4.69576 5.47306L4.70074 5.46817C4.86585 5.30832 5.12928 5.30995 5.29238 5.47306L8.95497 9.13565L8.95994 9.14055C9.12505 9.30039 9.38849 9.29876 9.55159 9.13565C9.71634 8.9709 9.71634 8.70378 9.55159 8.53903L5.88901 4.87644L5.87409 4.86176C5.37875 4.38223 4.58846 4.38712 4.09914 4.87644L0.436558 8.53903L0.431624 8.54396C0.271822 8.70912 0.273453 8.97255 0.436558 9.13565Z" fill="#8C8C8C"/>
</svg>
